<svg width="16" height="16" viewBox="0 0 16 16" fill="none" xmlns="http://www.w3.org/2000/svg">
<path d="M2.375 12.4375C2.02983 12.4375 1.75 12.7173 1.75 13.0625C1.75 13.4077 2.02983 13.6875 2.375 13.6875H13.625C13.9702 13.6875 14.25 13.4077 14.25 13.0625C14.25 12.7173 13.9702 12.4375 13.625 12.4375H2.375ZM2.37502 9.0625C2.02984 9.0625 1.75002 9.34233 1.75002 9.6875C1.75002 10.0327 2.02984 10.3125 2.37502 10.3125H7.37502C7.7202 10.3125 8.00002 10.0327 8.00002 9.6875C8.00002 9.34233 7.7202 9.0625 7.37502 9.0625H2.37502ZM2.37502 5.6875C2.02984 5.6875 1.75002 5.96733 1.75002 6.3125C1.75002 6.65767 2.02984 6.9375 2.37502 6.9375H7.37502C7.7202 6.9375 8.00002 6.65767 8.00002 6.3125C8.00002 5.96733 7.7202 5.6875 7.37502 5.6875H2.37502ZM2.375 2.3125C2.02983 2.3125 1.75 2.59233 1.75 2.9375C1.75 3.28267 2.02983 3.5625 2.375 3.5625H13.625C13.9702 3.5625 14.25 3.28267 14.25 2.9375C14.25 2.59233 13.9702 2.3125 13.625 2.3125H2.375Z" fill="#858B97"/>
<path d="M14.2488 9.69339V6.3025C14.2488 5.84698 13.7772 5.54446 13.3631 5.73443L9.61426 7.45453C9.12553 7.67878 9.12933 8.37456 9.62048 8.59346L13.3694 10.2643C13.7827 10.4485 14.2488 10.1459 14.2488 9.69339Z" fill="#858B97"/>
</svg>
