<svg width="18" height="18" viewBox="0 0 18 18" fill="none" xmlns="http://www.w3.org/2000/svg">
<path d="M10.0635 1.98633C10.4518 1.98633 10.7666 2.30113 10.7666 2.68945C10.7666 3.07778 10.4518 3.39258 10.0635 3.39258H4.0957C3.71126 3.39258 3.39888 3.70111 3.39267 4.08408L3.39258 4.0957V13.9043C3.39258 14.2887 3.70111 14.6011 4.08408 14.6073L4.0957 14.6074H13.9043C14.2887 14.6074 14.6011 14.2989 14.6073 13.9159L14.6074 13.9043V7.62012C14.6074 7.23179 14.9222 6.91699 15.3105 6.91699C15.6989 6.91699 16.0137 7.23179 16.0137 7.62012V13.9043C16.0137 15.0576 15.0881 15.9948 13.9392 16.0134L13.9043 16.0137H4.0957C2.94238 16.0137 2.00524 15.0881 1.98661 13.9392L1.98633 13.9043V4.0957C1.98633 2.94238 2.91193 2.00524 4.06082 1.98661L4.0957 1.98633H10.0635Z" fill="#858B97"/>
<path fill-rule="evenodd" clip-rule="evenodd" d="M5.0625 7.70801C5.0625 7.32454 5.37336 7.01367 5.75684 7.01367L8.32324 7.01367C8.70671 7.01367 9.01758 7.32454 9.01758 7.70801C9.01758 8.09148 8.70671 8.40234 8.32324 8.40234L5.75684 8.40234C5.37336 8.40234 5.0625 8.09148 5.0625 7.70801Z" fill="#858B97"/>
<path fill-rule="evenodd" clip-rule="evenodd" d="M5.0625 10.8545C5.0625 10.471 5.37336 10.1602 5.75684 10.1602L12.2432 10.1602C12.6266 10.1602 12.9375 10.471 12.9375 10.8545C12.9375 11.238 12.6266 11.5488 12.2432 11.5488L5.75684 11.5488C5.37336 11.5488 5.0625 11.238 5.0625 10.8545Z" fill="#858B97"/>
<path d="M15.5236 2.39562C15.7981 2.67021 15.7981 3.1154 15.5236 3.38999L11.6876 7.22591L10.763 7.15616L10.6933 6.23154L14.5292 2.39562C14.8038 2.12104 15.249 2.12105 15.5236 2.39562Z" fill="#858B97"/>
</svg>
