<svg width="14" height="14" viewBox="0 0 14 14" fill="none" xmlns="http://www.w3.org/2000/svg">
<path d="M11.3397 2.65241C11.553 2.866 11.5531 3.21233 11.3397 3.42581L7.7627 7.00278L11.3341 10.5742C11.5477 10.7878 11.5477 11.1341 11.3341 11.3476C11.1206 11.5612 10.7743 11.5612 10.5607 11.3476L6.98931 7.77618L3.41234 11.3531C3.19886 11.5666 2.85253 11.5664 2.63894 11.3531C2.42538 11.1396 2.42538 10.7933 2.63894 10.5797L6.21591 7.00278L2.64378 3.43065C2.43021 3.21708 2.43021 2.87082 2.64378 2.65725C2.85734 2.44368 3.20361 2.44368 3.41717 2.65725L6.98931 6.22938L10.5663 2.65241C10.7798 2.43885 11.1261 2.43885 11.3397 2.65241Z" fill="#858B97"/>
</svg>
