<?xml version="1.0" encoding="utf-8"?>
<!-- Generator: Adobe Illustrator 26.4.1, SVG Export Plug-In . SVG Version: 6.00 Build 0)  -->
<svg version="1.1" id="图层_1" xmlns="http://www.w3.org/2000/svg" xmlns:xlink="http://www.w3.org/1999/xlink" x="0px" y="0px"
	 viewBox="0 0 1024 1024" style="enable-background:new 0 0 1024 1024;" xml:space="preserve">
<style type="text/css">
	.st0{fill:#8A8D9C;}
	.st1{fill:#C2C5CF;}
</style>
<path class="st0" d="M508.2,960c-17.3,0-34.5-3.7-50.6-11.2L173.4,816.6C131.2,797,104,754.3,104,707.8V319.6
	c0-22.7,6.4-44.9,18.5-64.1c12.1-19.2,29.4-34.5,49.9-44.3l17.2,36.1l-17.2-36.1L456.7,76c32.4-15.4,69.6-15.6,102.2-0.4
	l291.8,135.7c42.2,19.6,69.4,62.3,69.4,108.8v387.2c0,46.9-27.6,89.8-70.3,109.2L557.9,949.2C542.1,956.4,525.1,960,508.2,960z
	 M508.2,144.4c-5.9,0-11.7,1.3-17.2,3.9L206.8,283.5c-13.9,6.6-22.8,20.8-22.8,36.1v388.2c0,15.5,9.1,29.7,23.1,36.3l284.2,132.1
	c10.6,4.9,22.8,5,33.4,0.1l291.8-132.6c14.2-6.5,23.4-20.8,23.4-36.4V320.1c0-15.5-9.1-29.7-23.1-36.3L525.1,148.1
	C519.7,145.6,514,144.4,508.2,144.4z"/>
<path class="st0" d="M506.1,505.1L141.9,333.2c-20-9.4-28.5-33.3-19.1-53.2c9.4-20,33.3-28.5,53.2-19.1l330.8,156.1l345.7-156.4
	c20.1-9.1,43.8-0.2,52.9,20c9.1,20.1,0.2,43.8-20,52.9L506.1,505.1z"/>
<path class="st0" d="M508,954c-22.1,0-40-17.9-40-40V462c0-22.1,17.9-40,40-40c22.1,0,40,17.9,40,40v452
	C548,936.1,530.1,954,508,954z"/>
<path class="st1" d="M685.1,302.7c42.4,19.7,69.4,62.1,69.4,108.8v139.4l-80,36.6v-176c0-15.6-9-29.7-23.1-36.3l-424.3-190
	l94.9-45.1L685.1,302.7z"/>
</svg>
