<?xml version="1.0" encoding="utf-8"?>
<!-- Generator: Adobe Illustrator 26.4.1, SVG Export Plug-In . SVG Version: 6.00 Build 0)  -->
<svg version="1.1" id="图层_1" xmlns="http://www.w3.org/2000/svg" xmlns:xlink="http://www.w3.org/1999/xlink" x="0px" y="0px"
	 viewBox="0 0 1024 1024" style="enable-background:new 0 0 1024 1024;" xml:space="preserve">
<style type="text/css">
	.st0{fill:#2372FF;}
</style>
<path class="st0" d="M850.6,211.3L558.8,75.6c-32.4-15.1-69.9-14.9-102.2,0.4L172.4,211.3c-41.8,19.9-68.4,62.1-68.4,108.4v388.2
	c0,46.7,27.1,89.1,69.4,108.8l284.2,132.1c31.8,14.8,68.4,14.9,100.2,0.4l291.8-132.6c42.8-19.5,70.3-62.2,70.3-109.2V320.1
	C920,273.5,892.9,231,850.6,211.3z M754.5,550.9l-80,36.6v-176c0-15.6-9-29.7-23.1-36.3l-424.3-190l94.9-45.1l363.1,162.6
	c42.4,19.7,69.4,62.1,69.4,108.8V550.9z"/>
</svg>
