<svg width="32" height="24" viewBox="0 0 32 24" fill="none" xmlns="http://www.w3.org/2000/svg">
<path d="M10.2623 16.4667L10.9136 12.0167H6.3017L3.34448 18H0L4.98151 7.9H1.49621L1.72505 6.31667H15.7719L15.543 7.9H8.32599L7.07621 10.4333H14.5045L13.5363 16.8667C13.4894 17.1889 13.331 17.4611 13.0611 17.6833C12.7912 17.8944 12.4861 18 12.1457 18H8.69564L10.2623 16.4667Z" fill="#13171F"/>
<path d="M26.332 7.58333H32L30.627 16.9C30.5683 17.2222 30.4158 17.4389 30.1693 17.55C29.9229 17.6611 29.6354 17.7167 29.3068 17.7167H27.1593L27.9162 17.0833L29.0956 9.16667H28.8668L26.332 17.7167H24.3253L26.8601 9.16667H26.3672L23.8148 17.7167H21.8081L24.0789 10.1167H22.9347L24.2373 6.4L23.8852 6H26.8953L26.332 7.58333ZM19.4846 8.53333H20.1535L20.5408 6H22.8819L22.4946 8.53333H22.8291L22.6003 10.1167H22.2658L21.8257 13.0333L22.5122 12.9667L22.2834 14.55L21.5793 14.6333L21.0864 18H18.4109L18.8685 14.9L16.1577 15.1833L16.4042 13.6L19.115 13.3167L19.5902 10.1167H19.0798L18.6925 11.7H16.6858L17.7772 7.38333L17.3899 6.95H19.8895L19.4846 8.53333Z" fill="#13171F"/>
</svg>
