<svg width="32" height="32" viewBox="0 0 32 32" fill="none" xmlns="http://www.w3.org/2000/svg">
<path d="M12.7123 9.34027C12.7123 9.34027 5.45344 12.4024 3.9365 20.7453C-1.52455 6.48593 15.8826 5.42413 16.486 1.32441C17.5891 4.62797 17.5974 7.86849 16.4135 10.3922C14.4036 14.6778 8.97279 17.5591 7.69101 23.0969C11.2817 16.0001 18.3071 14.7643 23.335 12.0749C28.4498 9.33908 27.974 3.82786 22.0528 1.18484C20.2674 0.387897 18.2679 0.0266953 16.1978 0.00131989C7.34797 -0.105734 0.00103099 7.14807 1.08104e-07 15.9981C-0.000515333 20.4805 1.84222 24.5318 4.81132 27.4365C4.79574 22.6929 5.9853 15.0739 12.7123 9.34027Z" fill="#346BFA"/>
<path d="M28.3709 5.4884C31.2645 9.8157 31.7165 17.1032 28.3451 21.5503C24.2862 26.9045 15.0558 24.9767 10.7806 29.0035C14.2886 21.7731 21.6575 19.3037 21.6575 19.3037C21.6575 19.3037 11.2813 19.4627 5.20996 31.8662C5.21024 31.8658 6.48663 30.7826 7.8945 29.7989C10.2715 31.1981 13.0417 32.001 15.9995 32.001C24.8362 32.001 31.9996 24.8376 31.9996 16.001C31.9996 10.014 28.3713 5.4884 28.3709 5.4884Z" fill="#346BFA"/>
</svg>
