<?xml version="1.0" encoding="utf-8"?>
<!-- Generator: Adobe Illustrator 26.4.1, SVG Export Plug-In . SVG Version: 6.00 Build 0)  -->
<svg version="1.1" id="图层_1" xmlns="http://www.w3.org/2000/svg" xmlns:xlink="http://www.w3.org/1999/xlink" x="0px" y="0px"
	 viewBox="0 0 1024 1024" style="enable-background:new 0 0 1024 1024;" xml:space="preserve">
<style type="text/css">
	.st0{fill:#C2C5CF;}
	.st1{fill:#8A8D9C;}
</style>
<path class="st0" d="M432,520h160c22.1,0,40,17.9,40,40s-17.9,40-40,40H432c-22.1,0-40-17.9-40-40S409.9,520,432,520z"/>
<path class="st1" d="M880,440H144c-44.1,0-80-35.9-80-80V240c0-44.1,35.9-80,80-80h736c44.1,0,80,35.9,80,80v120
	C960,404.1,924.1,440,880,440z M144,240C144,240,143.9,240,144,240v120h736V240H144z"/>
<path class="st1" d="M722.2,912H301.8c-64,0-116.7-50.1-119.9-114L160,360h704l-21.9,438C838.9,861.9,786.3,912,722.2,912z
	 M244.1,440l17.7,354c1.1,21.3,18.6,38,39.9,38h420.5c21.3,0,38.9-16.7,40-38l17.7-354H244.1z"/>
</svg>
