<?xml version="1.0" encoding="utf-8"?>
<!-- Generator: Adobe Illustrator 26.4.1, SVG Export Plug-In . SVG Version: 6.00 Build 0)  -->
<svg version="1.1" id="图层_1" xmlns="http://www.w3.org/2000/svg" xmlns:xlink="http://www.w3.org/1999/xlink" x="0px" y="0px"
	 viewBox="0 0 1024 1024" style="enable-background:new 0 0 1024 1024;" xml:space="preserve">
<style type="text/css">
	.st0{fill:#2372FF;}
</style>
<path class="st0" d="M144,160h736c44.2,0,80,35.8,80,80v120c0,44.2-35.8,80-80,80H144c-44.2,0-80-35.8-80-80V240
	C64,195.8,99.8,160,144,160z"/>
<path class="st0" d="M160,360l21.9,438c3.2,63.9,55.9,114,119.9,114h420.5c63.9,0,116.7-50.1,119.9-114L864,360H160z M592,600H432
	c-22.1,0-40-17.9-40-40s17.9-40,40-40h160c22.1,0,40,17.9,40,40S614.1,600,592,600z"/>
</svg>
