<?xml version="1.0" encoding="utf-8"?>
<!-- Generator: Adobe Illustrator 26.4.1, SVG Export Plug-In . SVG Version: 6.00 Build 0)  -->
<svg version="1.1" id="图层_1" xmlns="http://www.w3.org/2000/svg" xmlns:xlink="http://www.w3.org/1999/xlink" x="0px" y="0px"
	 viewBox="0 0 1024 1024" style="enable-background:new 0 0 1024 1024;" xml:space="preserve">
<style type="text/css">
	.st0{fill:#8A8D9C;}
	.st1{fill:#C2C5CF;}
</style>
<path class="st0" d="M880,492H144c-44.1,0-80-35.9-80-80V252c0-44.1,35.9-80,80-80h736c44.1,0,80,35.9,80,80v160
	C960,456.1,924.1,492,880,492z M144,252C144,252,143.9,252,144,252v160h736V252H144z"/>
<path class="st1" d="M720,292h80c22.1,0,40,17.9,40,40l0,0c0,22.1-17.9,40-40,40h-80c-22.1,0-40-17.9-40-40l0,0
	C680,309.9,697.9,292,720,292z"/>
<path class="st0" d="M880,852H144c-44.1,0-80-35.9-80-80V612c0-44.1,35.9-80,80-80h736c44.1,0,80,35.9,80,80v160
	C960,816.1,924.1,852,880,852z M144,612C144,612,143.9,612,144,612v160h736V612H144z"/>
<path class="st1" d="M720,652h80c22.1,0,40,17.9,40,40l0,0c0,22.1-17.9,40-40,40h-80c-22.1,0-40-17.9-40-40l0,0
	C680,669.9,697.9,652,720,652z"/>
</svg>
