<?xml version="1.0" encoding="utf-8"?>
<!-- Generator: Adobe Illustrator 26.4.1, SVG Export Plug-In . SVG Version: 6.00 Build 0)  -->
<svg version="1.1" id="图层_1" xmlns="http://www.w3.org/2000/svg" xmlns:xlink="http://www.w3.org/1999/xlink" x="0px" y="0px"
	 viewBox="0 0 1024 1024" style="enable-background:new 0 0 1024 1024;" xml:space="preserve">
<style type="text/css">
	.st0{fill:#2372FF;}
</style>
<path class="st0" d="M880,172H144c-44.2,0-80,35.8-80,80v160c0,44.2,35.8,80,80,80h736c44.2,0,80-35.8,80-80V252
	C960,207.8,924.2,172,880,172z M800,372h-80c-22.1,0-40-17.9-40-40s17.9-40,40-40h80c22.1,0,40,17.9,40,40S822.1,372,800,372z"/>
<path class="st0" d="M880,532H144c-44.2,0-80,35.8-80,80v160c0,44.2,35.8,80,80,80h736c44.2,0,80-35.8,80-80V612
	C960,567.8,924.2,532,880,532z M800,732h-80c-22.1,0-40-17.9-40-40s17.9-40,40-40h80c22.1,0,40,17.9,40,40S822.1,732,800,732z"/>
</svg>
