<?xml version="1.0" encoding="utf-8"?>
<!-- Generator: Adobe Illustrator 26.4.1, SVG Export Plug-In . SVG Version: 6.00 Build 0)  -->
<svg version="1.1" id="图层_1" xmlns="http://www.w3.org/2000/svg" xmlns:xlink="http://www.w3.org/1999/xlink" x="0px" y="0px"
	 viewBox="0 0 1024 1024" style="enable-background:new 0 0 1024 1024;" xml:space="preserve">
<style type="text/css">
	.st0{fill:#8A8D9C;}
	.st1{fill:#C2C5CF;}
</style>
<path class="st0" d="M872,896H380c-58.8,0-114-22.9-155.6-64.4S160,734.8,160,676V342.6c0-21.9-9.1-43-25-58.1L76.5,229
	c-16-15.2-16.7-40.5-1.5-56.5c15.2-16,40.5-16.7,56.5-1.5l58.6,55.5c31.7,30.1,49.9,72.4,49.9,116.1V676c0,77.2,62.8,140,140,140
	h492c22.1,0,40,17.9,40,40S894.1,896,872,896z"/>
<circle class="st0" cx="172" cy="852" r="60"/>
<path class="st0" d="M752,776H400c-66.2,0-120-53.8-120-120V368c0-66.2,53.8-120,120-120h352c66.2,0,120,53.8,120,120v288
	C872,722.2,818.2,776,752,776z M400,328c-22.1,0-40,17.9-40,40v288c0,22.1,17.9,40,40,40h352c22.1,0,40-17.9,40-40V368
	c0-22.1-17.9-40-40-40H400z"/>
<path class="st1" d="M496,472h160c22.1,0,40,17.9,40,40l0,0c0,22.1-17.9,40-40,40H496c-22.1,0-40-17.9-40-40l0,0
	C456,489.9,473.9,472,496,472z"/>
</svg>
