<?xml version="1.0" encoding="utf-8"?>
<!-- Generator: Adobe Illustrator 26.4.1, SVG Export Plug-In . SVG Version: 6.00 Build 0)  -->
<svg version="1.1" id="图层_1" xmlns="http://www.w3.org/2000/svg" xmlns:xlink="http://www.w3.org/1999/xlink" x="0px" y="0px"
	 viewBox="0 0 1024 1024" style="enable-background:new 0 0 1024 1024;" xml:space="preserve">
<style type="text/css">
	.st0{fill:#2372FF;}
</style>
<path class="st0" d="M872,896H380c-58.8,0-114-22.9-155.6-64.4S160,734.8,160,676V342.6c0-21.9-9.1-43-25-58.1L76.5,229
	c-16-15.2-16.7-40.5-1.5-56.5c15.2-16,40.5-16.7,56.5-1.5l58.6,55.5c31.7,30.1,49.9,72.4,49.9,116.1V676c0,77.2,62.8,140,140,140
	h492c22.1,0,40,17.9,40,40S894.1,896,872,896z"/>
<circle class="st0" cx="172" cy="852" r="60"/>
<path class="st0" d="M752,248H400c-66.3,0-120,53.7-120,120v288c0,66.3,53.7,120,120,120h352c66.3,0,120-53.7,120-120V368
	C872,301.7,818.3,248,752,248z M656,552H496c-22.1,0-40-17.9-40-40s17.9-40,40-40h160c22.1,0,40,17.9,40,40S678.1,552,656,552z"/>
</svg>
