<?xml version="1.0" encoding="utf-8"?>
<!-- Generator: Adobe Illustrator 26.4.1, SVG Export Plug-In . SVG Version: 6.00 Build 0)  -->
<svg version="1.1" id="图层_1" xmlns="http://www.w3.org/2000/svg" xmlns:xlink="http://www.w3.org/1999/xlink" x="0px" y="0px"
	 viewBox="0 0 1024 1024" style="enable-background:new 0 0 1024 1024;" xml:space="preserve">
<style type="text/css">
	.st0{fill:#8A8D9C;}
	.st1{fill:#C2C5CF;}
</style>
<path class="st0" d="M829,912H195c-33.6,0-65.8-14.2-88.5-38.9c-22.7-24.7-34-58.1-31.1-91.5l39-446c2.6-30,16.3-57.7,38.5-78
	c22.2-20.3,51-31.5,81.1-31.5H790c30.1,0,58.9,11.2,81.1,31.5c22.2,20.3,35.9,48,38.5,78l39,446c2.9,33.4-8.4,66.8-31.1,91.5
	S862.6,912,829,912z M234,306c-20.9,0-38,15.7-39.8,36.5l-39,446c-1,11.3,2.7,22.1,10.4,30.5c7.7,8.4,18.1,13,29.5,13H829
	c11.4,0,21.8-4.6,29.5-13c7.7-8.4,11.3-19.2,10.4-30.5l-39-446c-1.8-20.8-19-36.5-39.8-36.5H234z"/>
<path class="st0" d="M712,434h-80V264c0-66.2-53.8-120-120-120c-66.2,0-120,53.8-120,120v170h-80V264c0-110.3,89.7-200,200-200
	s200,89.7,200,200V434z"/>
<path class="st1" d="M352,696c0-22.1,17.9-40,40-40h240c22.1,0,40,17.9,40,40s-17.9,40-40,40H392C369.9,736,352,718.1,352,696z"/>
<circle class="st0" cx="352" cy="434" r="60"/>
<circle class="st0" cx="672" cy="434" r="60"/>
</svg>
