<?xml version="1.0" encoding="utf-8"?>
<!-- Generator: Adobe Illustrator 26.4.1, SVG Export Plug-In . SVG Version: 6.00 Build 0)  -->
<svg version="1.1" id="图层_1" xmlns="http://www.w3.org/2000/svg" xmlns:xlink="http://www.w3.org/1999/xlink" x="0px" y="0px"
	 viewBox="0 0 1024 1024" style="enable-background:new 0 0 1024 1024;" xml:space="preserve">
<style type="text/css">
	.st0{fill:#2372FF;}
</style>
<path class="st0" d="M948.6,781.5l-39-446C904.2,273.6,852.3,226,790,226h-81.7C690.6,133.7,609.5,64,512,64s-178.6,69.7-196.4,162
	H234c-62.2,0-114.1,47.6-119.5,109.5l-39,446C69.3,851.7,124.6,912,195,912H829C899.4,912,954.7,851.7,948.6,781.5z M512,144
	c53,0,98,34.4,113.9,82H398.1C414,178.4,459,144,512,144z M632,736H392c-22.1,0-40-17.9-40-40s17.9-40,40-40h240
	c22.1,0,40,17.9,40,40S654.1,736,632,736z"/>
</svg>
