<svg width="1024" height="1024" viewBox="0 0 1024 1024" fill="none" xmlns="http://www.w3.org/2000/svg">
<path d="M509.3 915.8C428.4 915.8 387.2 898.9 353.2 884.9C332.7 876.5 317.9 870.4 296.5 868.9C234.5 864.4 164.6 864 103.9 864C81.8001 864 63.9001 846.1 63.9001 824C63.9001 801.9 81.8001 784 103.9 784C166 784 237.6 784.4 302.3 789.1C336.5 791.6 360.4 801.4 383.5 810.9C418.7 825.3 455 840.3 546.3 834.5C627.7 829.4 693.8 805.9 734.9 787C783.4 764.8 825.7 735.7 848.2 709.1C851.6 705.1 853.1 701.1 853.6 698.5C850.8 698.1 846.1 697.9 839.3 699C806.4 704 769.7 711.8 730.9 720.1C655.7 736.3 577.7 753 509 753C474.3 753 414.9 733.7 382.6 722.2C361.8 714.8 350.9 691.9 358.3 671.1C365.7 650.3 388.6 639.4 409.4 646.8C421.1 651 432.6 654.8 443.5 658.1C444.3 658.2 445.1 658.3 445.9 658.4C447.9 658.7 450 659.1 452.7 659.6C462.3 661.3 480.3 664.5 497.3 664.2C514.6 663.9 521.3 660.1 522.2 659.1C522.4 658.7 523.1 656.7 523 652.6C522.9 648.6 508.9 627.9 445.2 607.8C393.4 591.6 331.9 583 298 583C233.5 583 161.9 608.9 124.6 634.5C106.4 647 81.5001 642.3 69.0001 624.1C56.5001 605.9 61.2001 581 79.4001 568.5C127 535.9 213 503 298 503C336.8 503 407 512 469.3 531.6C504.6 542.7 533.3 556.1 554.5 571.2C576.3 586.7 602.4 613.2 603 651.4C603.1 655.8 602.9 660.1 602.5 664.1C638.9 658.2 677 650 714.4 642C754.4 633.4 792.2 625.4 827.5 620C848.6 616.8 867.4 618.1 883.6 624C901.5 630.5 915.6 642.2 924.4 658C941.6 688.8 935.7 730.1 909.6 760.9C879 797.1 828.9 832.3 768.5 859.9C700.7 890.9 625.7 909.8 551.6 914.5C536.3 915.4 522.3 915.8 509.3 915.8Z" fill="#8A8D9C"/>
<path d="M835 445.929C835 279.204 699.744 144 532.839 144C382.369 144 257.55 253.932 234.496 397.758C231 419.571 210.482 434.42 188.669 430.924C166.856 427.427 152.008 406.91 155.504 385.097C184.684 203.047 342.492 64 532.839 64C743.875 64.0001 915 234.97 915 445.929C915 468.776 912.988 491.186 909.122 512.984C905.265 534.736 884.504 549.243 862.752 545.386C841 541.528 826.495 520.767 830.352 499.016C833.403 481.808 835 464.071 835 445.929Z" fill="#8A8D9C"/>
<path d="M567.716 273.716C583.337 258.095 608.663 258.095 624.284 273.716L694.995 344.427C718.426 367.858 718.426 405.848 694.995 429.279L624.284 499.99C608.663 515.611 583.337 515.611 567.716 499.99C552.095 484.369 552.095 459.042 567.716 443.421L584.137 427H397C374.909 427 357 409.091 357 387C357 364.909 374.909 347 397 347H584.432L567.716 330.284C552.095 314.663 552.095 289.337 567.716 273.716Z" fill="#C2C5CF"/>
</svg>
