<svg width="1350" height="202" viewBox="0 0 1350 202" fill="none" xmlns="http://www.w3.org/2000/svg">
<path d="M0 10C0 4.47715 4.47715 0 10 0H650.551C653.948 0 657.112 1.72432 658.954 4.57863L693.049 57.4238C694.889 60.2759 698.05 61.9999 701.444 62.0025L1340.01 62.4906C1345.53 62.4949 1350 66.9708 1350 72.4906V192C1350 197.523 1345.52 202 1340 202H10C4.47718 202 0 197.523 0 192L0 10Z" fill="white"/>
<path d="M0 10C0 4.47715 4.47715 0 10 0H650.551C653.948 0 657.112 1.72432 658.954 4.57863L693.049 57.4238C694.889 60.2759 698.05 61.9999 701.444 62.0025L1340.01 62.4906C1345.53 62.4949 1350 66.9708 1350 72.4906V192C1350 197.523 1345.52 202 1340 202H10C4.47718 202 0 197.523 0 192L0 10Z" fill="url(#paint0_linear_1_454)"/>
<defs>
<linearGradient id="paint0_linear_1_454" x1="703.5" y1="-19.9033" x2="703.5" y2="179.995" gradientUnits="userSpaceOnUse">
<stop stop-color="#346BFA" stop-opacity="0.13"/>
<stop offset="1" stop-color="white" stop-opacity="0"/>
</linearGradient>
</defs>
</svg>
