<svg width="205" height="15" viewBox="0 0 205 15" fill="none" xmlns="http://www.w3.org/2000/svg">
<path d="M8.82 3.54H5L4.82 5.06H1.02L1.5 1.64H12.88L11.92 8.48H3.94L3.58 11.14H10.8L11.66 10.38L11.28 13.04H1.26C0.873337 13.04 0.56667 12.9133 0.340004 12.66C0.113337 12.3933 0.0266704 12.0667 0.0800037 11.68L0.800004 6.58H8.38L8.82 3.54ZM16.0889 3.02C16.1422 2.63333 16.3156 2.31333 16.6089 2.06C16.9156 1.79333 17.2622 1.66 17.6489 1.66H27.6689L26.2689 11.68C26.2022 12.0667 26.0222 12.3933 25.7289 12.66C25.4356 12.9133 25.0956 13.04 24.7089 13.04H14.6889L16.0889 3.02ZM19.8289 3.54L18.7489 11.14H22.5289L23.6089 3.54H19.8289ZM38.2341 3.54H34.4141L34.2341 5.06H30.4341L30.9141 1.64H42.2941L41.3341 8.48H33.3541L32.9941 11.14H40.2141L41.0741 10.38L40.6941 13.04H30.6741C30.2874 13.04 29.9807 12.9133 29.7541 12.66C29.5274 12.3933 29.4407 12.0667 29.4941 11.68L30.2141 6.58H37.7941L38.2341 3.54ZM56.663 3.54H49.083L48.783 5.64H56.363L55.343 13.04H45.303C44.9163 13.04 44.6096 12.9133 44.383 12.66C44.1563 12.3933 44.0696 12.0667 44.123 11.68L45.543 1.66H56.923L56.663 3.54ZM48.523 7.54L48.003 11.14H51.803L52.303 7.54H48.523ZM66.7519 1.54H69.7519L70.4519 0.500001L70.0119 1.43051e-06H74.5719L73.5519 1.54H75.8919L75.0919 7.24H59.8919L60.5719 2.3L59.9319 1.54H62.9519L62.4119 1.43051e-06H66.2119L66.7519 1.54ZM62.3519 14.08L63.1919 8H66.6119L66.0919 11.8H70.6519L71.5119 11.04L71.0919 14.08H62.3519ZM61.2119 14.08H58.1719L59.7319 8.38H62.7719L61.2119 14.08ZM71.8919 8.38H74.9319L74.8919 14.08H71.8519L71.8919 8.38ZM71.8119 3.44H64.2119L63.9519 5.34H71.5519L71.8119 3.44ZM67.6319 7.62H70.6519L70.5519 11.04H67.5319L67.6319 7.62ZM92.8503 5.82L92.1303 11.02H88.5903L89.0503 7.66H81.7703L81.4903 9.66L79.9303 11.02H77.6303L78.3503 5.82H92.8503ZM89.8903 0.920002H94.0903L93.8703 2.62H92.1703L93.1503 5.16H90.1103L89.2103 2.84L88.3903 5.16H85.3503L87.1703 0.0800016H90.1903L89.8903 0.920002ZM84.1703 14.4L85.1103 10.5H88.3103L87.9903 12.22H92.2103L93.0903 11.42L92.6703 14.4H84.1703ZM87.4503 8.14L80.6303 14.38H76.7503L83.7503 8.14H87.4503ZM85.5903 0.0800016L84.8503 5.38H81.7303L82.4703 0.0800016H85.5903ZM78.8703 1.14L78.3103 0.500001H81.7103L81.0703 5.06H78.3103L78.8703 1.14ZM97.0888 1.16L96.4288 0.400001H112.389L110.469 14.08H95.2688L97.0888 1.16ZM99.8888 8.2H107.489L107.789 6.1H100.189L99.8888 8.2ZM106.929 12.18L107.209 10.1H99.6088L99.3288 12.18H106.929ZM100.449 4.2H108.049L108.329 2.3H100.729L100.449 4.2ZM116.607 4.36H114.567L114.847 2.46H116.867L117.127 0.640002L116.647 0.0600007H120.147L119.807 2.46H121.807L121.527 4.36H119.527L118.107 14.42H115.187L116.607 4.36ZM122.227 14.42L123.487 13.16L124.427 6.48H121.407L121.687 4.5H131.107L130.827 6.48H127.387L126.447 13.22C126.394 13.5667 126.234 13.8533 125.967 14.08C125.714 14.3067 125.421 14.42 125.087 14.42H122.227ZM130.987 0.440001L130.707 2.44H122.487L122.767 0.440001H130.987ZM129.967 7.62L129.827 14.04H127.707L127.727 7.62H129.967ZM123.787 7.62L122.147 14.04H120.027L121.667 7.62H123.787ZM113.327 13.7L114.947 4.72H116.287L114.667 13.7H113.327ZM118.947 12.56L119.707 4.72H121.027L120.287 12.56H118.947ZM132.026 14.42L135.546 8.2H133.666L133.946 6.28H147.626L146.666 13.1C146.612 13.4733 146.432 13.7867 146.126 14.04C145.832 14.2933 145.492 14.42 145.106 14.42H141.146L142.946 12.56L143.546 8.2H139.346L135.826 14.42H132.026ZM136.306 5.72H132.506L136.726 0.480001L136.346 0.0200012H140.906L136.306 5.72ZM146.226 0.0200012L149.226 5.72H145.426L142.426 0.0200012H146.226ZM159.324 1.16L168.104 0.0200012L167.824 2.02L162.564 2.6L162.104 5.12H167.744L167.464 7.02H166.304L165.264 14.4H162.124L163.164 7.02H161.764L160.464 14.4H156.944L159.324 1.16ZM153.124 4.26H151.204L151.464 2.36H153.404L153.644 0.640002L153.204 0.0600007H156.824L156.504 2.36H158.424L158.164 4.26H156.224L154.804 14.42H151.704L153.124 4.26ZM149.944 13.7L151.544 4.72H152.804L151.204 13.7H149.944ZM155.704 12.56L156.484 4.72H157.744L156.964 12.56H155.704ZM172.543 4.58L173.003 4.02H170.123L170.323 2.5H174.223L174.783 1.82L170.023 1.92L170.243 0.400001L186.263 0.0200012L186.043 1.54L179.423 1.7L178.783 2.5H185.523L185.323 4.02H177.563L177.103 4.58H185.623L185.403 6.1H175.883L175.423 6.68H184.743L183.643 14.42H169.783L170.483 9.52H168.583L171.323 6.1H169.443L169.663 4.58H172.543ZM180.443 12.94L180.543 12.24H173.523L173.423 12.94H180.443ZM173.703 10.92H180.723L180.823 10.22H173.803L173.703 10.92ZM173.983 8.88H181.003L181.103 8.2H174.083L173.983 8.88ZM193.441 14.38L196.161 0.380001L204.901 0.120001L204.641 2.02L198.561 2.28L198.201 4.08H204.341L203.861 7.58L202.121 10.08L204.141 14.36H201.401L200.281 12.36L199.021 14.38H193.441ZM189.901 4.26H188.061L188.321 2.36H190.161L190.421 0.600001L189.981 0.0200012H193.441L193.101 2.36H194.701L194.441 4.26H192.841L191.401 14.42H188.461L189.901 4.26ZM186.741 13.7L188.321 4.88H189.581L188.001 13.7H186.741ZM200.181 6.72L200.101 7.28L200.601 8.42L201.241 7.42L201.441 5.9H197.841L196.161 14.38L198.701 10.6L197.621 8.1L197.821 6.72H200.181ZM192.241 12.56L192.981 4.92H194.241L193.501 12.56H192.241Z" fill="currentColor"/>
</svg>
