<svg width="205" height="15" viewBox="0 0 205 15" fill="none" xmlns="http://www.w3.org/2000/svg">
<path d="M8.81997 3.52H4.99997L4.81997 5.04H1.01997L1.49997 1.62H12.88L11.92 8.46H3.93997L3.57997 11.12H10.8L11.66 10.36L11.28 13.02H1.25997C0.873307 13.02 0.56664 12.8933 0.339973 12.64C0.113307 12.3733 0.0266399 12.0467 0.0799732 11.66L0.799973 6.56H8.37997L8.81997 3.52ZM16.0889 3C16.1422 2.61333 16.3155 2.29333 16.6089 2.04C16.9155 1.77333 17.2622 1.64 17.6489 1.64H27.6689L26.2689 11.66C26.2022 12.0467 26.0222 12.3733 25.7289 12.64C25.4355 12.8933 25.0955 13.02 24.7089 13.02H14.6889L16.0889 3ZM19.8289 3.52L18.7489 11.12H22.5289L23.6089 3.52H19.8289ZM38.234 3.52H34.414L34.234 5.04H30.434L30.914 1.62H42.294L41.334 8.46H33.354L32.994 11.12H40.214L41.074 10.36L40.694 13.02H30.674C30.2874 13.02 29.9807 12.8933 29.754 12.64C29.5274 12.3733 29.4407 12.0467 29.494 11.66L30.214 6.56H37.794L38.234 3.52ZM56.6629 3.52H49.0829L48.7829 5.62H56.3629L55.3429 13.02H45.3029C44.9163 13.02 44.6096 12.8933 44.3829 12.64C44.1563 12.3733 44.0696 12.0467 44.1229 11.66L45.5429 1.64H56.9229L56.6629 3.52ZM48.5229 7.52L48.0029 11.12H51.8029L52.3029 7.52H48.5229ZM62.2918 1.14L61.6318 0.380001H74.5518L73.6918 6.46H61.5318L62.2918 1.14ZM70.1718 4.56L70.4918 2.28H65.9318L65.6118 4.56H70.1718ZM75.4918 7.22L74.5318 14.06H66.9318L67.8918 7.22H75.4918ZM70.6718 9.12L70.2318 12.16H71.7518L72.1918 9.12H70.6718ZM67.1318 7.22L66.1718 14.06H58.5718L59.5318 7.22H67.1318ZM62.3118 9.12L61.8718 12.16H63.3918L63.8318 9.12H62.3118ZM93.0703 10.26L90.3303 11L90.4503 12.16H92.0503L92.9103 11.4L92.5503 14.06H87.2303L87.0103 11.9L83.2103 12.92L83.4703 11.02L86.8303 10.12L86.5503 7.4H83.9703L84.2503 5.5H86.3503L86.2503 4.56H84.3703L84.6503 2.66H86.0503L85.7703 7.15256e-07H89.1903L89.4703 2.66H94.1503L93.8703 4.56H89.6703L89.7703 5.5H93.7503L93.4703 7.4H89.9503L90.1503 9.22L93.3503 8.36L93.0703 10.26ZM77.9103 4.56L80.5103 0.5L80.0703 7.15256e-07H84.2503L81.3303 4.56H83.6103L80.6903 9.12H82.9703L82.7103 11.02H77.0103L77.2703 9.12L78.9903 6.46H77.6503L77.9103 4.56ZM82.3303 13.68L76.5903 14.06L76.8503 12.16L82.6103 11.78L82.3303 13.68ZM93.7503 7.15256e-07L94.2503 1.9H90.8303L90.3303 7.15256e-07H93.7503ZM104.709 12.16L105.069 9.5H102.029L102.309 7.6H112.189L111.909 9.5H108.869L108.509 12.16H111.549L111.269 14.06H101.389L101.669 12.16H104.709ZM96.2087 4.94L98.8087 0.88L98.3687 0.380001H102.549L99.6287 4.94H101.909L98.9887 9.5H101.269L101.009 11.4H95.3087L95.5687 9.5L97.2687 6.84H95.9487L96.2087 4.94ZM112.749 6.98H109.089L108.109 5.86L106.389 6.98H102.069L108.689 2.3H103.589L103.849 0.440001H112.769L112.489 2.48L110.229 4.2H110.289L112.749 6.98ZM100.629 14.06L94.8887 14.4L95.1487 12.54L100.909 12.16L100.629 14.06ZM129.767 9.98L129.167 14.16H113.287L113.887 9.98H129.767ZM129.627 5.78L129.107 9.56H114.747L115.267 5.78H129.627ZM117.967 2.52H114.927L115.187 0.740001H118.187L117.567 7.15256e-07H121.747L121.627 0.740001H124.647L124.027 7.15256e-07H128.207L128.087 0.740001H131.147L130.887 2.52H127.847L127.787 2.98H124.367L124.427 2.52H121.387L121.327 2.98H117.907L117.967 2.52ZM126.967 4.92H118.167L118.107 5.44H114.527L114.807 3.32H130.767L130.487 5.44H126.907L126.967 4.92ZM126.047 12.58L126.207 11.56H117.007L116.847 12.58H126.047ZM126.107 8.04L126.207 7.3H118.227L118.127 8.04H126.107ZM148.866 6.84L147.866 14.06H138.046L139.046 6.84H148.866ZM134.686 2.34L134.946 0.58L134.466 7.15256e-07H138.366L138.026 2.34H139.086L138.826 4.24H137.766L137.426 6.66L138.526 6.38L138.226 8.48L137.146 8.76L136.546 13.02C136.492 13.4067 136.319 13.7267 136.026 13.98C135.746 14.22 135.412 14.34 135.026 14.34H131.726L133.266 12.54L133.666 9.6L132.366 9.92L132.646 7.84L133.966 7.52L134.426 4.24H133.166L133.426 2.34H134.686ZM149.266 2.38L143.066 3.08L142.906 4.24H148.586L149.446 3.48L149.086 6.1H139.206L139.966 0.640001L139.286 0.0400002H143.486L143.346 1.06L149.526 0.440001L149.266 2.38ZM145.366 9.68L145.526 8.62H142.026L141.866 9.68H145.366ZM144.946 12.3L145.086 11.3H141.706L141.566 12.3H144.946ZM153.404 4.34H151.364L151.644 2.44H153.664L153.924 0.620001L153.444 0.0400002H156.944L156.604 2.44H158.604L158.324 4.34H156.324L154.904 14.4H151.984L153.404 4.34ZM159.024 14.4L160.284 13.14L161.224 6.46H158.204L158.484 4.48H167.904L167.624 6.46H164.184L163.244 13.2C163.191 13.5467 163.031 13.8333 162.764 14.06C162.511 14.2867 162.217 14.4 161.884 14.4H159.024ZM167.784 0.42L167.504 2.42H159.284L159.564 0.42H167.784ZM166.764 7.6L166.624 14.02H164.504L164.524 7.6H166.764ZM160.584 7.6L158.944 14.02H156.824L158.464 7.6H160.584ZM150.124 13.68L151.744 4.7H153.084L151.464 13.68H150.124ZM155.744 12.54L156.504 4.7H157.824L157.084 12.54H155.744ZM172.542 4.56L173.002 4H170.122L170.322 2.48H174.222L174.782 1.8L170.022 1.9L170.242 0.380001L186.262 7.15256e-07L186.042 1.52L179.422 1.68L178.782 2.48H185.522L185.322 4H177.562L177.102 4.56H185.622L185.402 6.08H175.882L175.422 6.66H184.742L183.642 14.4H169.782L170.482 9.5H168.582L171.322 6.08H169.442L169.662 4.56H172.542ZM180.442 12.92L180.542 12.22H173.522L173.422 12.92H180.442ZM173.702 10.9H180.722L180.822 10.2H173.802L173.702 10.9ZM173.982 8.86H181.002L181.102 8.18H174.082L173.982 8.86ZM193.441 14.36L196.161 0.360001L204.901 0.100001L204.641 2L198.561 2.26L198.201 4.06H204.341L203.861 7.56L202.121 10.06L204.141 14.34H201.401L200.281 12.34L199.021 14.36H193.441ZM189.901 4.24H188.061L188.321 2.34H190.161L190.421 0.58L189.981 7.15256e-07H193.441L193.101 2.34H194.701L194.441 4.24H192.841L191.401 14.4H188.461L189.901 4.24ZM186.741 13.68L188.321 4.86H189.581L188.001 13.68H186.741ZM200.181 6.7L200.101 7.26L200.601 8.4L201.241 7.4L201.441 5.88H197.841L196.161 14.36L198.701 10.58L197.621 8.08L197.821 6.7H200.181ZM192.241 12.54L192.981 4.9H194.241L193.501 12.54H192.241Z" fill="currentColor"/>
</svg>
