<?xml version="1.0" encoding="utf-8"?>
<!-- Generator: Adobe Illustrator 26.4.1, SVG Export Plug-In . SVG Version: 6.00 Build 0)  -->
<svg version="1.1" id="图层_1" xmlns="http://www.w3.org/2000/svg" xmlns:xlink="http://www.w3.org/1999/xlink" x="0px" y="0px"
	 viewBox="0 0 1024 1024" style="enable-background:new 0 0 1024 1024;" xml:space="preserve">
<style type="text/css">
	.st0{fill:#8A8D9C;}
	.st1{fill:#C2C5CF;}
</style>
<path class="st0" d="M824,896H200c-66.2,0-120-53.8-120-120V242c0-66.2,53.8-120,120-120h196.6c20.5,0,40.9,5.3,58.8,15.4
	s33,24.6,43.7,42.2l31.2,51.3c7.2,11.8,20.3,19.2,34.2,19.2H824c66.2,0,120,53.8,120,120v406C944,842.2,890.2,896,824,896z M200,202
	c-22.1,0-40,17.9-40,40v534c0,22.1,17.9,40,40,40h624c22.1,0,40-17.9,40-40V370c0-22.1-17.9-40-40-40H564.5
	c-20.5,0-40.9-5.3-58.8-15.4c-17.9-10.1-33-24.6-43.7-42.2l-31.2-51.3c-7.2-11.8-20.3-19.2-34.2-19.2H200z"/>
<path class="st1" d="M432,656h160c22.1,0,40,17.9,40,40s-17.9,40-40,40H432c-22.1,0-40-17.9-40-40S409.9,656,432,656z"/>
</svg>
