<?xml version="1.0" encoding="utf-8"?>
<!-- Generator: Adobe Illustrator 26.4.1, SVG Export Plug-In . SVG Version: 6.00 Build 0)  -->
<svg version="1.1" id="图层_1" xmlns="http://www.w3.org/2000/svg" xmlns:xlink="http://www.w3.org/1999/xlink" x="0px" y="0px"
	 viewBox="0 0 1024 1024" style="enable-background:new 0 0 1024 1024;" xml:space="preserve">
<style type="text/css">
	.st0{fill:#2372FF;}
</style>
<path class="st0" d="M824,250H564.5c-14,0-26.9-7.3-34.2-19.2l-31.2-51.3c-21.8-35.7-60.6-57.6-102.5-57.6H200
	c-66.3,0-120,53.7-120,120v534c0,66.3,53.7,120,120,120h624c66.3,0,120-53.7,120-120V370C944,303.7,890.3,250,824,250z M592,736H432
	c-22.1,0-40-17.9-40-40s17.9-40,40-40h160c22.1,0,40,17.9,40,40S614.1,736,592,736z"/>
</svg>
