<?xml version="1.0" encoding="utf-8"?>
<!-- Generator: Adobe Illustrator 26.4.1, SVG Export Plug-In . SVG Version: 6.00 Build 0)  -->
<svg version="1.1" id="图层_1" xmlns="http://www.w3.org/2000/svg" xmlns:xlink="http://www.w3.org/1999/xlink" x="0px" y="0px"
	 viewBox="0 0 1024 1024" style="enable-background:new 0 0 1024 1024;" xml:space="preserve">
<style type="text/css">
	.st0{fill:#8A8D9C;}
	.st1{fill:#C2C5CF;}
</style>
<path class="st0" d="M761.6,160c65.6,0.8,118.4,54.2,118.4,120v102h-80V280c0-22.1-17.9-40-40-40H184c-22.1,0-40,17.9-40,40v464
	c0,22.1,17.9,40,40,40h576c22.1,0,40-17.9,40-40V642h80v102l0,1.6c-0.8,65-53.4,117.6-118.4,118.4l-1.6,0H184
	c-65.8,0-119.2-52.9-120-118.4l0-1.6V280c0-66.3,53.7-120,120-120h576L761.6,160z"/>
<path class="st0" d="M960,642H792c-71.7,0-130-58.3-130-130c0-71.7,58.3-130,130-130h168V642z M792,462c-27.6,0-50,22.4-50,50
	c0,27.6,22.4,50,50,50h88V462H792z"/>
<path class="st1" d="M499.7,353.3c13.1-17.8,38.1-21.7,55.9-8.6c17.8,13.1,21.7,38.1,8.6,55.9L539.8,434H552c22.1,0,40,17.9,40,40
	c0,22.1-17.9,40-40,40h-40v40h40c22.1,0,40,17.9,40,40c0,22.1-17.9,40-40,40h-40v13c0,22.1-17.9,40-40,40s-40-17.9-40-40v-13h-40
	c-22.1,0-40-17.9-40-40c0-22.1,17.9-40,40-40h40v-40h-40c-22.1,0-40-17.9-40-40c0-22.1,17.9-40,40-40h13.3l-25-32.7
	c-13.4-17.5-10.1-42.6,7.4-56.1c17.5-13.4,42.6-10.1,56.1,7.4l28.9,37.7L499.7,353.3z"/>
</svg>
