<?xml version="1.0" encoding="utf-8"?>
<!-- Generator: Adobe Illustrator 26.4.1, SVG Export Plug-In . SVG Version: 6.00 Build 0)  -->
<svg version="1.1" id="图层_1" xmlns="http://www.w3.org/2000/svg" xmlns:xlink="http://www.w3.org/1999/xlink" x="0px" y="0px"
	 viewBox="0 0 1024 1024" style="enable-background:new 0 0 1024 1024;" xml:space="preserve">
<style type="text/css">
	.st0{fill:#2372FF;}
</style>
<path class="st0" d="M790.3,382l1.7,0h88V280c0-66.3-53.7-120-120-120H184c-66.3,0-120,53.7-120,120v464c0,66.3,53.7,120,120,120
	h576c66.3,0,120-53.7,120-120V642h-88c-71.8,0-130-58.2-130-130C662,440.8,719.3,382.9,790.3,382z M552.9,554c22.1,0,40,17.9,40,40
	s-17.9,40-40,40h-40.3v13c0,22.1-18.1,40-40.1,40s-40.1-17.9-40.1-40v-13h-40.3c-22.1,0-40-17.9-40-40c0-22.1,17.9-40,40-40h40.3
	v-40h-40.3c-22.1,0-40-17.9-40-40c0-22.1,17.9-40,40-40h13.6l-25.1-32.6c-13.5-17.5-10.2-42.6,7.3-56.1
	c17.5-13.5,42.6-10.2,56.1,7.3l29.1,37.9l27.4-37.2c13.1-17.8,38.1-21.6,55.9-8.5c17.8,13.1,21.6,38.1,8.5,55.9L540.4,434h12.5
	c22.1,0,40,17.9,40,40s-17.9,40-40,40h-40.3v40H552.9z"/>
<path class="st0" d="M880,462v100h-88c-27.6,0-50-22.4-50-50s22.4-50,50-50H880z"/>
</svg>
