<?xml version="1.0" encoding="utf-8"?>
<!-- Generator: Adobe Illustrator 26.4.1, SVG Export Plug-In . SVG Version: 6.00 Build 0)  -->
<svg version="1.1" id="图层_1" xmlns="http://www.w3.org/2000/svg" xmlns:xlink="http://www.w3.org/1999/xlink" x="0px" y="0px"
	 viewBox="0 0 1024 1024" style="enable-background:new 0 0 1024 1024;" xml:space="preserve">
<style type="text/css">
	.st0{fill:#8A8D9C;}
	.st1{fill:#C2C5CF;}
</style>
<path class="st0" d="M512,950.2c-12.5,0-25-2.9-36.3-8.7L243,822.8c-39.4-20.1-72.5-50.7-95.6-88.4S112,653.3,112,609V276
	c0-33.1,19.9-62.3,50.7-74.4L468,81.3c28.3-11.2,59.6-11.2,87.9,0l305.3,120.2c30.8,12.1,50.7,41.3,50.7,74.4v333
	c0,44.3-12.2,87.6-35.3,125.4s-56.2,68.3-95.6,88.4L548.3,941.5C537,947.3,524.5,950.2,512,950.2z M497.3,155.7L192,276v333
	c0,29.5,8.1,58.4,23.6,83.6c15.4,25.2,37.5,45.6,63.7,59L512,870.2l232.7-118.7c26.3-13.4,48.3-33.8,63.7-59
	c15.4-25.2,23.6-54.1,23.6-83.6V276L526.7,155.7C517.2,152,506.8,152,497.3,155.7z"/>
<path class="st1" d="M542.7,603.8c-3.5,0-6.9-0.5-10.4-1.4c-10.2-2.7-19-9.5-24.3-18.6l-40-69.3l-104.1,60.1
	c-19.1,11-43.6,4.5-54.6-14.6c-11-19.1-4.5-43.6,14.6-54.6l138.8-80.1c19.1-11,43.6-4.5,54.6,14.6l40,69.3L661,449.3
	c19.1-11,43.6-4.5,54.6,14.6s4.5,43.6-14.6,54.6l-138.4,79.9C556.5,602,549.6,603.8,542.7,603.8z"/>
</svg>
