<?xml version="1.0" encoding="utf-8"?>
<!-- Generator: Adobe Illustrator 26.4.1, SVG Export Plug-In . SVG Version: 6.00 Build 0)  -->
<svg version="1.1" id="图层_1" xmlns="http://www.w3.org/2000/svg" xmlns:xlink="http://www.w3.org/1999/xlink" x="0px" y="0px"
	 viewBox="0 0 1024 1024" style="enable-background:new 0 0 1024 1024;" xml:space="preserve">
<style type="text/css">
	.st0{fill:#2372FF;}
</style>
<path class="st0" d="M861.3,201.5L556,81.3c-28.3-11.1-59.7-11.1-87.9,0L162.7,201.5c-30.6,12-50.7,41.6-50.7,74.4v333
	c0,90.2,50.6,172.8,131,213.8l232.7,118.7c22.8,11.6,49.9,11.6,72.7,0L781,822.8c80.4-41,131-123.6,131-213.8V276
	C912,243.1,891.9,213.6,861.3,201.5z M701,518.5l-138.4,79.9c-6.1,3.6-13,5.4-19.9,5.4c-3.5,0-6.9-0.5-10.4-1.4
	c-10.2-2.7-19-9.5-24.3-18.6l-40-69.3l-104.1,60.1c-19.1,11-43.6,4.5-54.6-14.6c-11-19.1-4.5-43.6,14.6-54.6l138.8-80.1
	c19.1-11,43.6-4.5,54.6,14.6l40,69.3L661,449.3c19.1-11,43.6-4.5,54.6,14.6C726.6,483,720.1,507.5,701,518.5z"/>
</svg>
