<?xml version="1.0" encoding="utf-8"?>
<!-- Generator: Adobe Illustrator 26.4.1, SVG Export Plug-In . SVG Version: 6.00 Build 0)  -->
<svg version="1.1" id="图层_1" xmlns="http://www.w3.org/2000/svg" xmlns:xlink="http://www.w3.org/1999/xlink" x="0px" y="0px"
	 viewBox="0 0 1024 1024" style="enable-background:new 0 0 1024 1024;" xml:space="preserve">
<style type="text/css">
	.st0{fill:#8A8D9C;}
	.st1{fill:#C2C5CF;}
</style>
<path class="st0" d="M872,538c-22.1,0-40-17.9-40-40V272c0-44.1-35.9-80-80-80H320c-44.1,0-80,35.9-80,80v111c0,22.1-17.9,40-40,40
	s-40-17.9-40-40V272c0-88.2,71.8-160,160-160h432c88.2,0,160,71.8,160,160v226C912,520.1,894.1,538,872,538z"/>
<path class="st0" d="M509.3,915.8c-80.9,0-122.1-16.9-156.1-30.9c-20.5-8.4-35.3-14.5-56.7-16c-62-4.5-131.9-4.9-192.6-4.9
	c-22.1,0-40-17.9-40-40s17.9-40,40-40c62.1,0,133.7,0.4,198.4,5.1c34.2,2.5,58.1,12.3,81.2,21.8c35.2,14.4,71.5,29.4,162.8,23.6
	c81.4-5.1,147.5-28.6,188.6-47.5c48.5-22.2,90.8-51.3,113.3-77.9c3.4-4,4.9-8,5.4-10.6c-2.8-0.4-7.5-0.6-14.3,0.5
	c-32.9,5-69.6,12.8-108.4,21.1C655.7,736.3,577.7,753,509,753c-34.7,0-94.1-19.3-126.4-30.8c-20.8-7.4-31.7-30.3-24.3-51.1
	c7.4-20.8,30.3-31.7,51.1-24.3c11.7,4.2,23.2,8,34.1,11.3c0.8,0.1,1.6,0.2,2.4,0.3c2,0.3,4.1,0.7,6.8,1.2c9.6,1.7,27.6,4.9,44.6,4.6
	c17.3-0.3,24-4.1,24.9-5.1c0.2-0.4,0.9-2.4,0.8-6.5c-0.1-4-14.1-24.7-77.8-44.8C393.4,591.6,331.9,583,298,583
	c-64.5,0-136.1,25.9-173.4,51.5c-18.2,12.5-43.1,7.8-55.6-10.4c-12.5-18.2-7.8-43.1,10.4-55.6C127,535.9,213,503,298,503
	c38.8,0,109,9,171.3,28.6c35.3,11.1,64,24.5,85.2,39.6c21.8,15.5,47.9,42,48.5,80.2c0.1,4.4-0.1,8.7-0.5,12.7
	c36.4-5.9,74.5-14.1,111.9-22.1c40-8.6,77.8-16.6,113.1-22c21.1-3.2,39.9-1.9,56.1,4c17.9,6.5,32,18.2,40.8,34
	c17.2,30.8,11.3,72.1-14.8,102.9c-30.6,36.2-80.7,71.4-141.1,99c-67.8,31-142.8,49.9-216.9,54.6
	C536.3,915.4,522.3,915.8,509.3,915.8z"/>
<path class="st1" d="M606,412H466c-44.1,0-80-35.9-80-80V112h300v220C686,376.1,650.1,412,606,412z M466,192v140h140V192H466z"/>
</svg>
