<?xml version="1.0" encoding="utf-8"?>
<!-- Generator: Adobe Illustrator 26.4.1, SVG Export Plug-In . SVG Version: 6.00 Build 0)  -->
<svg version="1.1" id="图层_1" xmlns="http://www.w3.org/2000/svg" xmlns:xlink="http://www.w3.org/1999/xlink" x="0px" y="0px"
	 viewBox="0 0 1024 1024" style="enable-background:new 0 0 1024 1024;" xml:space="preserve">
<style type="text/css">
	.st0{fill:#2372FF;}
</style>
<path class="st0" d="M64,575.5C116,538,189.8,502,308.1,502c118.4,0,293.8,52,295.4,146.6c0.1,5-0.2,9.7-0.9,14
	c81-14.1,150.3-31.9,228.4-44.1c77.2-12.1,123,46.5,94.5,117.5C892,806,724.5,901.9,571,911.5c-170.5,18.5-213-39.2-279-44
	S127.1,863,64,863V575.5z"/>
<path class="st0" d="M911,732.5c0,0-2.6,0.8-15.8,4.2c5.9-5.8,11.2-11.6,15.8-17.3V732.5z"/>
<path class="st0" d="M831,112c44.2,0,80,35.8,80,80v402.3c-17.3-12.7-43.8-18.6-80-14.8c-66.5,7-126.2,22.5-192.1,36.3
	c0.1-1.4,0.1-2.9,0.1-4.3C637.5,516.9,426.5,463,308.1,463c-59.8,0-108.2,9.2-148.1,23.1V192c0-44.2,35.8-80,80-80h146v220
	c0,43.8,35.3,79.4,79,80l1,0h140c44.2,0,80-35.8,80-80V112H831z"/>
<rect x="466" y="192" class="st0" width="140" height="140"/>
</svg>
