<?xml version="1.0" encoding="utf-8"?>
<!-- Generator: Adobe Illustrator 26.4.1, SVG Export Plug-In . SVG Version: 6.00 Build 0)  -->
<svg version="1.1" id="图层_1" xmlns="http://www.w3.org/2000/svg" xmlns:xlink="http://www.w3.org/1999/xlink" x="0px" y="0px"
	 viewBox="0 0 1024 1024" style="enable-background:new 0 0 1024 1024;" xml:space="preserve">
<style type="text/css">
	.st0{fill:#C2C5CF;}
	.st1{fill:#8A8D9C;}
</style>
<rect x="654" y="409" class="st0" width="186" height="80"/>
<path class="st0" d="M534,369V183c0-66.3,54.8-121.6,118.4-103.2c15.1,4.4,30,9.6,44.6,15.6c51.7,21.4,98.6,52.8,138.2,92.3
	c39.6,39.6,70.9,86.5,92.3,138.2c6,14.6,11.3,29.5,15.6,44.6C961.6,434.2,906.3,489,840,489v-80c11.6,0,20.3-4.9,24.4-9.4
	c1.8-2,2.3-3.3,2.3-3.7c0-0.1,0.3-0.9-0.4-3.1c-3.6-12.3-7.8-24.4-12.7-36.2c-17.4-42-42.9-80.1-75-112.3
	c-32.1-32.1-70.3-57.6-112.3-75c-11.9-4.9-23.9-9.1-36.2-12.7c-2.3-0.7-3.1-0.4-3.1-0.3c-0.3,0.1-1.7,0.5-3.7,2.3
	c-4.4,4.1-9.4,12.7-9.4,24.4v186c0,22.1,17.9,40,40,40v80l-1.6,0c-65-0.8-117.6-53.4-118.4-118.4L534,369z"/>
<path class="st1" d="M884,529H671.4c-22.1,0-39.4,18.3-45.8,39.4c-3.9,13-9.7,25.5-17.4,36.9c-15.1,22.6-36.6,40.2-61.7,50.6
	c-25.1,10.4-52.7,13.1-79.4,7.8c-26.7-5.3-51.1-18.4-70.3-37.6c-19.2-19.2-32.3-43.7-37.6-70.3c-5.2-26.2-2.7-53.4,7.3-78.2l0.5-1.2
	c10.2-24.7,27.5-45.9,49.5-60.9l1.1-0.7c11.1-7.4,23.1-13.1,35.7-17l1.2-0.4c20.8-6.2,38.9-23.2,39.4-44.7l0-1V139
	c0-22.1-17.9-40.2-39.9-38.1c-70.9,6.6-139.4,30.8-199,70.6c-70.7,47.2-125.8,114.4-158.4,193l-0.8,1.8
	c-31.9,78.1-40.2,163.8-23.7,246.6l0.4,2c16.8,82.7,57.6,158.5,117.3,218.2l1.4,1.4c59.9,59.4,136,99.8,218.8,116.3l2,0.4
	c82.2,15.9,167.2,7.6,244.6-24.1l1.8-0.8c78-32.3,144.7-86.8,191.9-156.7l1.1-1.7c39.8-59.6,64-128,70.6-199v0
	C924.2,546.9,906.1,529,884,529z M785,723.4c-38.5,57.6-93.1,102.4-157.1,128.9c-64,26.5-134.3,33.4-202.2,19.9
	c-67.9-13.5-130.3-46.8-179.2-95.8c-48.9-48.9-82.3-111.3-95.8-179.2c-13.5-67.9-6.6-138.3,19.9-202.2
	c26.5-64,71.4-118.6,128.9-157.1c35-23.4,73.8-40.2,114.4-49.7v138.6c-14.2,5.6-27.9,12.8-40.8,21.4c-35.8,23.9-63.6,57.8-80.1,97.6
	c-16.5,39.7-20.8,83.4-12.4,125.6c8.4,42.2,29.1,80.9,59.5,111.3c30.4,30.4,69.1,51.1,111.3,59.5s85.9,4.1,125.6-12.4
	c39.7-16.5,73.7-44.3,97.6-80.1c8.6-12.9,15.7-26.5,21.4-40.8h138.6C825.2,649.6,808.4,688.4,785,723.4z"/>
</svg>
