<?xml version="1.0" encoding="utf-8"?>
<!-- Generator: Adobe Illustrator 26.4.1, SVG Export Plug-In . SVG Version: 6.00 Build 0)  -->
<svg version="1.1" id="图层_1" xmlns="http://www.w3.org/2000/svg" xmlns:xlink="http://www.w3.org/1999/xlink" x="0px" y="0px"
	 viewBox="0 0 1024 1024" style="enable-background:new 0 0 1024 1024;" xml:space="preserve">
<style type="text/css">
	.st0{fill:#8A8D9C;}
	.st1{fill:#C2C5CF;}
	.st2{fill-rule:evenodd;clip-rule:evenodd;fill:#8A8D9C;}
</style>
<path class="st0" d="M673,768H183c-66.2,0-120-53.8-120-120V278c0-66.2,53.8-120,120-120h370c66.2,0,120,53.8,120,120V768z M183,238
	c-22.1,0-40,17.9-40,40v370c0,22.1,17.9,40,40,40h410V278c0-22.1-17.9-40-40-40H183z"/>
<path class="st1" d="M528,608c0,22.1-17.9,40-40,40H248c-22.1,0-40-17.9-40-40s17.9-40,40-40h240C510.1,568,528,585.9,528,608z"/>
<path class="st0" d="M839,768H593V408h149.6c30.3,0,59.2,11.3,81.4,31.8l96.4,89c24.5,22.6,38.6,54.8,38.6,88.2v31
	C959,714.2,905.2,768,839,768z M673,688h166c22.1,0,40-17.9,40-40v-31c0-11.1-4.7-21.8-12.9-29.4l-96.4-89
	c-7.4-6.8-17-10.6-27.1-10.6H673V688z"/>
<path class="st0" d="M827,767.5c0,70.7-57.3,128-128,128s-128-57.3-128-128h80c0,26.5,21.5,48,48,48s48-21.5,48-48H827z"/>
<path class="st2" d="M451,768c0,70.7-57.3,128-128,128s-128-57.3-128-128h80c0,26.5,21.5,48,48,48s48-21.5,48-48H451z"/>
</svg>
