<?xml version="1.0" encoding="utf-8"?>
<!-- Generator: Adobe Illustrator 26.4.1, SVG Export Plug-In . SVG Version: 6.00 Build 0)  -->
<svg version="1.1" id="图层_1" xmlns="http://www.w3.org/2000/svg" xmlns:xlink="http://www.w3.org/1999/xlink" x="0px" y="0px"
	 viewBox="0 0 1024 1024" style="enable-background:new 0 0 1024 1024;" xml:space="preserve">
<style type="text/css">
	.st0{fill:#2372FF;}
</style>
<path class="st0" d="M553,158H183c-66.3,0-120,53.7-120,120v370c0,66.3,53.7,120,120,120h490V278C673,211.7,619.3,158,553,158z
	 M488,648H248c-22.1,0-40-17.9-40-40s17.9-40,40-40h240c22.1,0,40,17.9,40,40S510.1,648,488,648z"/>
<path class="st0" d="M593,408h149.6c30.2,0,59.2,11.4,81.4,31.8l96.4,89C945,551.6,959,583.5,959,617v31c0,66.3-53.7,120-120,120
	H593V408z"/>
<path class="st0" d="M827,767.5c0,70.7-57.3,128-128,128s-128-57.3-128-128h80c0,26.5,21.5,48,48,48s48-21.5,48-48H827z"/>
<path class="st0" d="M451,768c0,70.7-57.3,128-128,128s-128-57.3-128-128h80c0,26.5,21.5,48,48,48s48-21.5,48-48H451z"/>
</svg>
